<svg id="Layer_1" data-name="Layer 1" xmlns="http://www.w3.org/2000/svg" viewBox="0 0 13.5 18"><defs><style>.cls-1{fill:#fff;}</style></defs><title>copy</title><g id="Visual"><g id="Index-lingue-globali-start-phase"><g id="_-g-sidebar" data-name="-g-sidebar"><g id="CTAs-Copy"><g id="Group"><g id="copyto"><path id="copy" class="cls-1" d="M13.5,4.19V16.56a1.68,1.68,0,0,1-1.69,1.69H1.69a1.63,1.63,0,0,1-1.2-.49A1.63,1.63,0,0,1,0,16.56V4.19A1.63,1.63,0,0,1,.49,3a1.63,1.63,0,0,1,1.2-.49H4.5A2.16,2.16,0,0,1,5.17.92a2.21,2.21,0,0,1,3.16,0A2.16,2.16,0,0,1,9,2.5h2.81A1.68,1.68,0,0,1,13.5,4.19ZM6.75,1.66a0.84,0.84,0,0,0-.84.84,0.84,0.84,0,1,0,1.69,0A0.84,0.84,0,0,0,6.75,1.66Zm3.37,4V5a0.25,0.25,0,0,0-.21-0.21H3.59A0.25,0.25,0,0,0,3.37,5v0.7a0.25,0.25,0,0,0,.21.21H9.91A0.25,0.25,0,0,0,10.12,5.66Z" transform="translate(0 -0.25)"/></g></g></g></g></g></g></svg>