<svg id="Layer_1" data-name="Layer 1" xmlns="http://www.w3.org/2000/svg" viewBox="0 0 13.5 15.75"><defs><style>.cls-1{fill:#fff;}</style></defs><title>download</title><g id="Visual"><g id="Index-lingue-globali-start-phase"><g id="_-g-sidebar" data-name="-g-sidebar"><g id="CTAs-Copy"><g id="Group"><g id="download"><path class="cls-1" d="M7.07,12.61a0.43,0.43,0,0,1-.63,0L1.27,7.41a0.33,0.33,0,0,1-.14-0.28,0.51,0.51,0,0,1,.11-0.32l0.7-.7A0.51,0.51,0,0,1,2.25,6a0.33,0.33,0,0,1,.28.14l3.3,3.41V0.8A0.42,0.42,0,0,1,6.26.38h1A0.42,0.42,0,0,1,7.66.8V9.55L11,6.14A0.33,0.33,0,0,1,11.25,6a0.51,0.51,0,0,1,.32.11l0.67,0.7a0.44,0.44,0,0,1,.14.32,0.38,0.38,0,0,1-.11.28Zm6,1.69a0.42,0.42,0,0,1,.42.42v1a0.42,0.42,0,0,1-.42.42H0.42A0.41,0.41,0,0,1,.12,16,0.41,0.41,0,0,1,0,15.7v-1a0.41,0.41,0,0,1,.12-0.3,0.41,0.41,0,0,1,.3-0.12H13.08Z" transform="translate(0 -0.38)"/></g></g></g></g></g></g></svg>