<svg id="Layer_1" data-name="Layer 1" xmlns="http://www.w3.org/2000/svg" viewBox="0 0 13.5 15.75"><defs><style>.cls-1{fill:#fff;}</style></defs><title>load</title><g id="Visual"><g id="Index-lingue-globali-start-phase"><g id="_-g-sidebar" data-name="-g-sidebar"><g id="CTAs-Copy"><g id="Group"><g id="copyto-copy"><path id="load" class="cls-1" d="M0.84,0.38a0.81,0.81,0,0,0-.6.25,0.81,0.81,0,0,0-.25.6V2.06a0.81,0.81,0,0,0,.25.6,0.81,0.81,0,0,0,.6.25H12.66a0.84,0.84,0,0,0,.84-0.84V1.22a0.81,0.81,0,0,0-.25-0.6,0.81,0.81,0,0,0-.6-0.25H0.84Zm9.49,9.88a0.81,0.81,0,0,0,1.16,0l0.6-.6a0.85,0.85,0,0,0,0-1.2L7.35,3.68a0.85,0.85,0,0,0-1.2,0L1.37,8.46A0.79,0.79,0,0,0,1.12,9a0.86,0.86,0,0,0,.28.62L2,10.22a0.77,0.77,0,0,0,.6.28,0.81,0.81,0,0,0,.6-0.25L5.48,7.93v7.35a0.84,0.84,0,0,0,.84.84H7.17A0.84,0.84,0,0,0,8,15.28V7.93Z" transform="translate(0 -0.38)"/></g></g></g></g></g></g></svg>